<svg xmlns="http://www.w3.org/2000/svg" width="1200" height="630" viewBox="0 0 1200 630">
  <defs>
    <linearGradient id="bg" x1="0" x2="1" y1="0" y2="1">
      <stop offset="0%" stop-color="#041624" />
      <stop offset="100%" stop-color="#15406E" />
    </linearGradient>
    <filter id="softShadow" x="-10%" y="-10%" width="120%" height="120%">
      <feDropShadow dx="0" dy="12" stdDeviation="14" flood-color="rgba(0,0,0,0.16)" />
    </filter>
  </defs>
  <rect width="100%" height="100%" fill="url(#bg)" />
  
      <rect x="34" y="28" width="1132" height="574" rx="22" fill="#0C243C" stroke="rgba(148,163,184,0.34)" filter="url(#softShadow)" />
      
    <text x="72" y="82" font-family="JetBrains Mono, ui-monospace, monospace" font-size="16" letter-spacing="1.1" fill="#38BDF8">
      BROWSER FORMAT WORKFLOW
    </text>
    <text x="72" y="138" font-family="Bricolage Grotesque, Segoe UI, sans-serif" font-size="52" font-weight="800" fill="#F8FAFC">Convert WEBP to JPG</text>
  
      <rect x="74" y="224" width="1050" height="320" rx="16" fill="#10304F" stroke="rgba(148,163,184,0.34)" />
      <line x1="74" y1="224" x2="74" y2="544" stroke="rgba(148,163,184,0.34)" stroke-width="1" /><line x1="140" y1="224" x2="140" y2="544" stroke="rgba(148,163,184,0.34)" stroke-width="1" /><line x1="206" y1="224" x2="206" y2="544" stroke="rgba(148,163,184,0.34)" stroke-width="1" /><line x1="272" y1="224" x2="272" y2="544" stroke="rgba(148,163,184,0.34)" stroke-width="1" /><line x1="338" y1="224" x2="338" y2="544" stroke="rgba(148,163,184,0.34)" stroke-width="1" /><line x1="404" y1="224" x2="404" y2="544" stroke="rgba(148,163,184,0.34)" stroke-width="1" /><line x1="470" y1="224" x2="470" y2="544" stroke="rgba(148,163,184,0.34)" stroke-width="1" /><line x1="536" y1="224" x2="536" y2="544" stroke="rgba(148,163,184,0.34)" stroke-width="1" /><line x1="602" y1="224" x2="602" y2="544" stroke="rgba(148,163,184,0.34)" stroke-width="1" /><line x1="668" y1="224" x2="668" y2="544" stroke="rgba(148,163,184,0.34)" stroke-width="1" /><line x1="734" y1="224" x2="734" y2="544" stroke="rgba(148,163,184,0.34)" stroke-width="1" /><line x1="800" y1="224" x2="800" y2="544" stroke="rgba(148,163,184,0.34)" stroke-width="1" /><line x1="866" y1="224" x2="866" y2="544" stroke="rgba(148,163,184,0.34)" stroke-width="1" /><line x1="932" y1="224" x2="932" y2="544" stroke="rgba(148,163,184,0.34)" stroke-width="1" /><line x1="998" y1="224" x2="998" y2="544" stroke="rgba(148,163,184,0.34)" stroke-width="1" /><line x1="1064" y1="224" x2="1064" y2="544" stroke="rgba(148,163,184,0.34)" stroke-width="1" />
      <line x1="74" y1="224" x2="1124" y2="224" stroke="rgba(148,163,184,0.34)" stroke-width="1" /><line x1="74" y1="288" x2="1124" y2="288" stroke="rgba(148,163,184,0.34)" stroke-width="1" /><line x1="74" y1="352" x2="1124" y2="352" stroke="rgba(148,163,184,0.34)" stroke-width="1" /><line x1="74" y1="416" x2="1124" y2="416" stroke="rgba(148,163,184,0.34)" stroke-width="1" /><line x1="74" y1="480" x2="1124" y2="480" stroke="rgba(148,163,184,0.34)" stroke-width="1" /><line x1="74" y1="544" x2="1124" y2="544" stroke="rgba(148,163,184,0.34)" stroke-width="1" />
      <rect x="124" y="286" width="228" height="128" rx="10" fill="rgba(56,189,248,0.24)" stroke="rgba(148,163,184,0.34)" />
      <rect x="392" y="350" width="286" height="128" rx="10" fill="rgba(56,189,248,0.24)" stroke="rgba(148,163,184,0.34)" />
      <rect x="726" y="270" width="318" height="188" rx="10" fill="rgba(56,189,248,0.24)" stroke="rgba(148,163,184,0.34)" />
      <text x="148" y="334" font-family="JetBrains Mono, ui-monospace, monospace" font-size="14" fill="#38BDF8">PLAN 01</text>
      <text x="416" y="398" font-family="JetBrains Mono, ui-monospace, monospace" font-size="14" fill="#38BDF8">PLAN 02</text>
      <text x="750" y="318" font-family="JetBrains Mono, ui-monospace, monospace" font-size="14" fill="#38BDF8">PLAN 03</text>
      <text x="72" y="578" font-family="Bricolage Grotesque, Segoe UI, sans-serif" font-size="18" font-weight="500" fill="#B4C7D9">Blueprint view for WEBP to JPG conversion with deterministic browser processing stages.</text>
    
</svg>