<svg xmlns="http://www.w3.org/2000/svg" width="1200" height="630" viewBox="0 0 1200 630">
  <defs>
    <linearGradient id="bg" x1="0" x2="1" y1="0" y2="1">
      <stop offset="0%" stop-color="#EEF8EE" />
      <stop offset="100%" stop-color="#CDEFD1" />
    </linearGradient>
    <filter id="softShadow" x="-10%" y="-10%" width="120%" height="120%">
      <feDropShadow dx="0" dy="12" stdDeviation="14" flood-color="rgba(0,0,0,0.16)" />
    </filter>
  </defs>
  <rect width="100%" height="100%" fill="url(#bg)" />
  
      <rect x="34" y="28" width="1132" height="574" rx="22" fill="#FDFEFC" stroke="rgba(36,102,54,0.2)" filter="url(#softShadow)" />
      
    <text x="72" y="82" font-family="JetBrains Mono, ui-monospace, monospace" font-size="16" letter-spacing="1.1" fill="#2F9E44">
      PROFESSIONAL TOOL GUIDE
    </text>
    <text x="72" y="138" font-family="Bricolage Grotesque, Segoe UI, sans-serif" font-size="46" font-weight="800" fill="#102516">Break Even Calculator</text>
  
      
          <rect x="102" y="286" width="650" height="42" rx="10" fill="#E8F8EA" stroke="rgba(36,102,54,0.2)" />
          <rect x="120" y="296" width="20" height="20" rx="5" fill="rgba(47,158,68,0.16)" stroke="#2F9E44" />
          <path d="M124 308 L130 313 L138 302" fill="none" stroke="#2F9E44" stroke-width="2.2" stroke-linecap="round" stroke-linejoin="round" />
          <text x="152" y="313" font-family="Bricolage Grotesque, Segoe UI, sans-serif" font-size="19" fill="#102516">Set baseline inputs</text>
        
          <rect x="102" y="344" width="650" height="42" rx="10" fill="#E8F8EA" stroke="rgba(36,102,54,0.2)" />
          <rect x="120" y="354" width="20" height="20" rx="5" fill="rgba(47,158,68,0.16)" stroke="#2F9E44" />
          <path d="M124 366 L130 371 L138 360" fill="none" stroke="#2F9E44" stroke-width="2.2" stroke-linecap="round" stroke-linejoin="round" />
          <text x="152" y="371" font-family="Bricolage Grotesque, Segoe UI, sans-serif" font-size="19" fill="#102516">Compare scenario outputs</text>
        
          <rect x="102" y="402" width="650" height="42" rx="10" fill="#E8F8EA" stroke="rgba(36,102,54,0.2)" />
          <rect x="120" y="412" width="20" height="20" rx="5" fill="rgba(47,158,68,0.16)" stroke="#2F9E44" />
          <path d="M124 424 L130 429 L138 418" fill="none" stroke="#2F9E44" stroke-width="2.2" stroke-linecap="round" stroke-linejoin="round" />
          <text x="152" y="429" font-family="Bricolage Grotesque, Segoe UI, sans-serif" font-size="19" fill="#102516">Validate edge assumptions</text>
        
          <rect x="102" y="460" width="650" height="42" rx="10" fill="#E8F8EA" stroke="rgba(36,102,54,0.2)" />
          <rect x="120" y="470" width="20" height="20" rx="5" fill="rgba(47,158,68,0.16)" stroke="#2F9E44" />
          <path d="M124 482 L130 487 L138 476" fill="none" stroke="#2F9E44" stroke-width="2.2" stroke-linecap="round" stroke-linejoin="round" />
          <text x="152" y="487" font-family="Bricolage Grotesque, Segoe UI, sans-serif" font-size="19" fill="#102516">Prepare publish summary</text>
        
      <rect x="792" y="286" width="306" height="154" rx="16" fill="#E8F8EA" stroke="rgba(36,102,54,0.2)" />
      <text x="826" y="334" font-family="JetBrains Mono, ui-monospace, monospace" font-size="14" fill="#2F9E44">READINESS</text>
      <text x="826" y="388" font-family="Bricolage Grotesque, Segoe UI, sans-serif" font-size="56" font-weight="800" fill="#102516">92%</text>
      <text x="72" y="578" font-family="Bricolage Grotesque, Segoe UI, sans-serif" font-size="18" font-weight="500" fill="#3E6B4C">Break-even planning board with baseline inputs, scenario checks, and readiness scoring.</text>
    
</svg>